<svg width="24" height="24" viewBox="0 0 24 24" fill="none" xmlns="http://www.w3.org/2000/svg">
<path fill-rule="evenodd" clip-rule="evenodd" d="M12.7066 2.29303C12.5191 2.10556 12.2648 2.00024 11.9996 2.00024C11.7344 2.00024 11.4801 2.10556 11.2926 2.29303L4.29259 9.29303L2.29259 11.293C2.19708 11.3853 2.1209 11.4956 2.06849 11.6176C2.01608 11.7396 1.9885 11.8709 1.98734 12.0036C1.98619 12.1364 2.01149 12.2681 2.06177 12.391C2.11205 12.5139 2.18631 12.6255 2.2802 12.7194C2.37409 12.8133 2.48574 12.8876 2.60864 12.9379C2.73154 12.9881 2.86321 13.0134 2.99599 13.0123C3.12877 13.0111 3.25999 12.9835 3.382 12.9311C3.504 12.8787 3.61435 12.8025 3.70659 12.707L3.99959 12.414V19C3.99959 19.7957 4.31566 20.5587 4.87827 21.1214C5.44088 21.684 6.20394 22 6.99959 22H16.9996C17.7952 22 18.5583 21.684 19.1209 21.1214C19.6835 20.5587 19.9996 19.7957 19.9996 19V12.414L20.2926 12.707C20.4812 12.8892 20.7338 12.99 20.996 12.9877C21.2582 12.9854 21.509 12.8803 21.6944 12.6948C21.8798 12.5094 21.985 12.2586 21.9873 11.9964C21.9895 11.7342 21.8888 11.4816 21.7066 11.293L12.7066 2.29303Z" fill="#FF9A62"/>
</svg>
