<svg width="28" height="28" viewBox="0 0 28 28" fill="none" xmlns="http://www.w3.org/2000/svg">
<path d="M2.7998 14.1751C4.0248 10.6867 7.53064 8.16675 11.6665 8.16675C16.283 8.16675 20.1155 11.3062 20.8668 15.4304C20.1026 15.1084 19.111 14.8412 18.1076 14.6744C16.0835 14.3384 14.5376 15.0384 13.2135 15.6427L13.2006 15.6486C11.8543 16.2634 10.7378 16.7732 9.26897 16.6076C8.0988 16.4757 7.0453 16.1059 6.05597 15.6672C5.60797 15.4689 5.18214 15.2612 4.76097 15.0547L4.6198 14.9859C4.16859 14.7604 3.70982 14.5502 3.2443 14.3559L2.7998 14.1751Z" fill="#FF9A62"/>
<path d="M2.39509 15.8994C2.35385 16.235 2.3332 16.5728 2.33325 16.9109C2.33325 19.145 3.22692 21.1832 4.69925 22.729C5.22425 23.2809 5.48675 23.5562 6.58692 24.0287C7.68825 24.5 8.44658 24.5 9.96558 24.5H13.3676C14.8866 24.5 15.6449 24.5 16.7463 24.0287C17.8464 23.5562 18.1089 23.2809 18.6351 22.729C19.9861 21.3092 20.8494 19.474 20.9824 17.4557L20.5753 17.2294C20.0258 16.9237 18.9956 16.5959 17.8208 16.401C16.3753 16.1607 15.2728 16.6262 13.9404 17.2352L13.8121 17.2935C12.5358 17.8769 11.0284 18.5664 9.07308 18.347C7.65559 18.1872 6.41892 17.7415 5.34675 17.2667C4.86842 17.0544 4.41342 16.8327 3.99342 16.6274L3.85342 16.5585C3.43853 16.3507 3.01673 16.1569 2.58875 15.9775L2.39509 15.8994ZM14.6533 2.84671C15.0663 3.25854 15.1468 3.87337 15.1631 4.95837H16.7066C17.7478 4.95844 18.7748 5.2009 19.7061 5.66654L20.6814 6.15421C21.4759 5.51371 22.7814 5.46937 23.9166 6.12504C25.3119 6.93004 25.9209 8.48754 25.2758 9.60404C24.6318 10.7194 22.9774 10.9714 21.5833 10.1664C20.5986 9.59704 20.0048 8.65321 19.9686 7.75487L18.9233 7.23221C18.235 6.88795 17.4761 6.70861 16.7066 6.70837H15.1666V7.56471C14.0379 7.18927 12.856 6.99859 11.6666 7.00004C10.4416 7.00004 9.26325 7.19837 8.16659 7.56471V6.70837H8.29142C8.40458 6.70954 8.53642 6.71071 8.64842 6.70837C8.81059 6.70254 9.02992 6.68737 9.25042 6.61971C9.48608 6.54621 9.76025 6.40037 9.95975 6.11221C10.1534 5.83454 10.2083 5.52304 10.2083 5.25004C10.2083 4.97704 10.1534 4.66554 9.95975 4.38671C9.78692 4.14251 9.53648 3.96404 9.24925 3.88037C9.05338 3.82451 8.85092 3.79509 8.64725 3.79287C8.52905 3.79035 8.4108 3.78996 8.29258 3.79171H8.24825C8.31709 3.37871 8.44425 3.08004 8.67759 2.84671C9.19325 2.33337 10.0169 2.33337 11.6666 2.33337C13.3163 2.33337 14.1411 2.33337 14.6533 2.84671Z" fill="#FF9A62"/>
</svg>
