<svg width="21" height="25" viewBox="0 0 21 25" fill="none" xmlns="http://www.w3.org/2000/svg">
<path fill-rule="evenodd" clip-rule="evenodd" d="M15.1824 5.89809C14.9871 5.64081 14.8431 5.35206 14.7576 5.05871C14.2201 3.21383 12.5155 1.86787 10.4999 1.86787C8.48426 1.86787 6.77964 3.21383 6.24213 5.05871C6.15666 5.35206 6.01262 5.64081 5.81739 5.89809H15.1824ZM2.07704 7.19809V23.6999H18.9229V7.19809H2.07704ZM4.99402 4.69507C4.8535 5.17737 4.43833 5.554 3.93598 5.554H1.77704C1.22475 5.554 0.777039 6.00171 0.777039 6.55399V23.9999C0.777039 24.5522 1.22475 24.9999 1.77704 24.9999H19.2229C19.7752 24.9999 20.2229 24.5522 20.2229 23.9999V6.554C20.2229 6.00171 19.7752 5.554 19.2229 5.554H17.0638C16.5614 5.554 16.1463 5.17737 16.0057 4.69507C15.3109 2.31036 13.1089 0.567871 10.4999 0.567871C7.89085 0.567871 5.68881 2.31036 4.99402 4.69507Z" fill="black"/>
</svg>
