<svg width="25" height="22" viewBox="0 0 25 22" fill="none" xmlns="http://www.w3.org/2000/svg">
<path d="M6.92254 1.6665L1.6665 10.9998L6.92254 20.3332H17.7438L22.9998 10.9998L17.7438 1.6665H6.92254Z" stroke="#F5F6F6" stroke-width="1.5"/>
<path d="M9.92618 12.4414L9.93509 12.3332H9.82652H8.88831L9.21952 8.26127L9.22831 8.15316H9.11985H8.71985H8.69243L8.66885 8.16715L7.34218 8.95381L7.29786 8.98009L7.29354 9.03144L7.2402 9.66477L7.22408 9.85619L7.39013 9.7596L8.24502 9.26231L8.00082 12.3332H7.05985H6.96775L6.96019 12.425L6.91352 12.9916L6.90461 13.0998H7.01318H9.77985H9.87195L9.87951 13.008L9.92618 12.4414ZM11.0111 12.5805L11.0115 12.5811C11.3093 12.9653 11.741 13.1532 12.2906 13.1532C12.8981 13.1532 13.3739 12.8936 13.7077 12.3811C14.038 11.874 14.1972 11.1721 14.1972 10.2865C14.1972 9.59511 14.0575 9.05195 13.763 8.67191C13.4652 8.28768 13.0335 8.09983 12.4839 8.09983C12.0855 8.09983 11.7384 8.21523 11.448 8.44853L11.4473 8.44904C11.1628 8.68138 10.9493 9.01439 10.8027 9.44063C10.6559 9.86725 10.5839 10.3766 10.5839 10.9665C10.5839 11.6576 10.7213 12.2005 11.0111 12.5805ZM13.0935 9.16122L13.0935 9.16123L13.0943 9.16233C13.2331 9.36862 13.3106 9.70429 13.3106 10.1865C13.3106 10.9367 13.2175 11.4923 13.0403 11.8634C12.9522 12.048 12.8469 12.1797 12.7274 12.2652C12.6089 12.3499 12.4713 12.3932 12.3106 12.3932C12.0184 12.3932 11.8146 12.2899 11.6806 12.0912C11.5457 11.8846 11.4706 11.5486 11.4706 11.0665C11.4706 10.321 11.5636 9.76765 11.7407 9.39647C11.8311 9.20951 11.9381 9.07607 12.0589 8.9894C12.1786 8.90348 12.3168 8.85983 12.4772 8.85983C12.7647 8.85983 12.9638 8.96278 13.0935 9.16122ZM15.0085 12.5805L15.0089 12.5811C15.3067 12.9653 15.7384 13.1532 16.288 13.1532C16.8955 13.1532 17.3713 12.8936 17.7051 12.3811C18.0354 11.874 18.1946 11.1721 18.1946 10.2865C18.1946 9.59511 18.0549 9.05195 17.7604 8.67191C17.4626 8.28768 17.0309 8.09983 16.4813 8.09983C16.0829 8.09983 15.7358 8.21523 15.4453 8.44853L15.4447 8.44904C15.1602 8.68138 14.9467 9.01439 14.8001 9.44063C14.6533 9.86725 14.5813 10.3766 14.5813 10.9665C14.5813 11.6576 14.7187 12.2005 15.0085 12.5805ZM17.0909 9.16122L17.0909 9.16123L17.0917 9.16233C17.2305 9.36862 17.308 9.70429 17.308 10.1865C17.308 10.9367 17.2149 11.4923 17.0377 11.8634C16.9496 12.048 16.8443 12.1797 16.7248 12.2652C16.6063 12.3499 16.4687 12.3932 16.308 12.3932C16.0158 12.3932 15.812 12.2899 15.678 12.0912C15.5431 11.8846 15.468 11.5486 15.468 11.0665C15.468 10.3211 15.561 9.76773 15.7381 9.39655C15.8284 9.20955 15.9355 9.07609 16.0563 8.9894C16.176 8.90348 16.3142 8.85983 16.4746 8.85983C16.7621 8.85983 16.9612 8.96278 17.0909 9.16122Z" fill="#F5F6F6" stroke="white" stroke-width="0.2"/>
</svg>
