<svg width="95" height="95" viewBox="0 0 95 95" fill="none" xmlns="http://www.w3.org/2000/svg">
<g clip-path="url(#clip0_22_1153)">
<path d="M56.188 15.9056C55.343 14.875 54.1232 14.2223 52.797 14.0911C51.4708 13.9599 50.1467 14.3609 49.1162 15.2059L15.4392 42.8187C14.4086 43.6637 13.7559 44.8834 13.6247 46.2097C13.4935 47.5359 13.8945 48.86 14.7395 49.8905L29.6079 68.0243C30.4529 69.0549 31.6727 69.7076 32.999 69.8388C34.3252 69.97 35.6492 69.569 36.6798 68.724L40.5656 65.5379C40.9091 65.2562 41.1267 64.8496 41.1705 64.4076C41.2142 63.9655 41.0805 63.5241 40.7989 63.1806C39.9216 62.1107 39.6251 61.2102 39.592 60.4618C39.5582 59.6968 39.794 58.9012 40.3053 58.0402C41.374 56.2368 43.3793 54.5666 45.3844 52.9226C45.5547 52.7829 45.6958 52.6109 45.7996 52.4165C45.9034 52.2221 45.9678 52.0092 45.9892 51.7899L46.1252 50.4394L46.691 44.7206C46.9089 42.5189 47.4287 41.4991 47.8268 41.0601C48.147 40.7109 48.4797 40.62 48.9408 40.6752C49.9264 40.7941 50.6115 40.8952 51.0878 41.2542C51.3739 41.4658 51.9197 42.0363 51.7228 44.0259L50.3234 58.1697C50.2793 58.612 50.4128 59.0537 50.6943 59.3976C50.8338 59.5679 51.0054 59.709 51.1993 59.813C51.3933 59.917 51.6059 59.9817 51.8249 60.0035C52.0439 60.0254 52.265 60.0038 52.4757 59.9402C52.6864 59.8765 52.8825 59.772 53.0528 59.6326C53.2231 59.4932 53.3642 59.3216 53.4682 59.1276C53.5722 58.9336 53.6369 58.7211 53.6588 58.5021L54.0545 54.4779L62.0489 47.9231L60.8547 59.9924C60.7901 60.6495 60.5967 61.2874 60.2854 61.8697C59.9742 62.4519 59.5512 62.9672 59.0408 63.3859L40.4615 78.6197C40.1179 78.9013 39.9004 79.3079 39.8566 79.75C39.8129 80.1921 39.9466 80.6334 40.2282 80.977C40.5099 81.3205 40.9165 81.538 41.3586 81.5818C41.8007 81.6255 42.242 81.4919 42.5855 81.2102L61.1648 65.9764C62.8814 64.5684 63.9686 62.5363 64.1875 60.3269L65.7119 44.9196L70.3568 41.1112C71.3873 40.2662 72.04 39.0464 72.1713 37.7202C72.3025 36.3939 71.9015 35.0699 71.0565 34.0393L56.188 15.9056ZM63.0516 42.7688L54.521 49.7633L55.0582 44.3583C55.3257 41.6306 54.6199 39.7184 53.1024 38.5756C52.8032 38.352 52.4804 38.162 52.1396 38.0091C51.5256 36.576 50.5867 35.3055 49.3971 34.2977C48.2076 33.29 46.7999 32.5727 45.2855 32.2026C43.771 31.8325 42.1912 31.8197 40.6709 32.1652C39.1506 32.5107 37.7316 33.205 36.5258 34.1933C35.0233 35.4251 33.9101 37.0659 33.3209 38.9172C32.7316 40.7685 32.6916 42.7509 33.2056 44.6245C33.7196 46.498 34.7657 48.1825 36.2172 49.4739C37.6687 50.7652 39.4634 51.6082 41.3841 51.9008C39.9229 53.1725 38.4088 54.6652 37.4227 56.3315C36.6828 57.5794 36.1763 59.017 36.2478 60.6046L36.245 60.6329C35.3501 60.0475 34.2918 59.7628 33.224 59.8203C32.1562 59.8777 31.1345 60.2743 30.3076 60.9524L29.0124 62.0144L20.5161 51.6523L21.8114 50.5903C22.842 49.7453 23.4947 48.5255 23.6259 47.1992C23.7571 45.873 23.3561 44.5489 22.5111 43.5184L21.4491 42.2231L47.3544 20.9825L48.4164 22.2778C49.2614 23.3083 50.4812 23.961 51.8075 24.0923C53.1337 24.2235 54.4578 23.8225 55.4883 22.9775L56.7836 21.9154L65.2798 32.2776L63.9846 33.3396C62.954 34.1846 62.3013 35.4044 62.1701 36.7306C62.0389 38.0569 62.4399 39.3809 63.2849 40.4115L64.3469 41.7068L63.0516 42.7688ZM34.5558 66.1335L34.5324 66.1526C34.188 66.4248 33.7504 66.5509 33.3138 66.5037C32.8773 66.4565 32.4768 66.2398 32.1985 65.9002L31.1364 64.605L32.4317 63.5429C32.7752 63.2613 33.2166 63.1276 33.6586 63.1713C34.1007 63.2151 34.5073 63.4326 34.789 63.7762L35.851 65.0714L34.5558 66.1335ZM38.6499 36.7839C39.9675 35.7035 41.6472 35.1658 43.3472 35.2801C45.0472 35.3943 46.6399 36.152 47.8011 37.3989C46.9419 37.5662 46.0827 37.9977 45.3479 38.8082C44.2501 40.0159 43.6043 41.8753 43.3557 44.3882L42.9326 48.6643C41.5483 48.6714 40.1958 48.2494 39.0611 47.4566C37.9264 46.6637 37.0651 45.5388 36.5956 44.2365C36.1262 42.9343 36.0716 41.5186 36.4395 40.1841C36.8073 38.8495 37.5795 37.6617 38.6499 36.7839ZM54.6595 19.3249L53.3643 20.3869C53.0207 20.6686 52.5794 20.8023 52.1373 20.7585C51.6952 20.7148 51.2886 20.4972 51.007 20.1537L49.9449 18.8584L51.2402 17.7964C51.5837 17.5147 52.0251 17.3811 52.4672 17.4248C52.9092 17.4685 53.3158 17.6861 53.5975 18.0296L54.6595 19.3249ZM18.8585 44.3472L19.9206 45.6424C20.2022 45.9859 20.3359 46.4273 20.2922 46.8694C20.2484 47.3115 20.0309 47.7181 19.6873 47.9997L18.3921 49.0618L17.33 47.7665C17.0484 47.423 16.9147 46.9816 16.9584 46.5395C17.0022 46.0975 17.2197 45.6909 17.5633 45.4092L18.8585 44.3472ZM66.9374 39.5827L65.8754 38.2874C65.5937 37.9439 65.4601 37.5026 65.5038 37.0605C65.5475 36.6184 65.7651 36.2118 66.1086 35.9301L67.4039 34.8681L68.4659 36.1634C68.7476 36.5069 68.8813 36.9483 68.8375 37.3903C68.7938 37.8324 68.5762 38.239 68.2327 38.5207L66.9374 39.5827Z" fill="black"/>
</g>
<defs>
<clipPath id="clip0_22_1153">
<rect width="67" height="67" fill="white" transform="translate(51.8105) rotate(50.6506)"/>
</clipPath>
</defs>
</svg>
